# xmcd
#
# Track frame offsets: 
#        150
#        77320
#        96997
#        124248
#
# Disc length: 1972 seconds
#
# Revision: 0
# Processed by: cddbd v1.5.2PL0 Copyright (c) Steve Scherf et al.
# Submitted via: ExactAudioCopyFreeDBPlugin 1.0
#
DISCID=2707b204
DTITLE=Rare Earth - Ma
DYEAR=1973
DGENRE=Blues
TTITLE0=Ma
TTITLE1=Big John Is My Name
TTITLE2=Smiling Faces Sometimes
TTITLE3=Hum Along And Dance
EXTD=
EXTT0=
EXTT1=
EXTT2=
EXTT3=
PLAYORDER=
